<?xml version="1.0" standalone="no"?>
<!DOCTYPE svg PUBLIC "-//W3C//DTD SVG 20010904//EN"
 "http://www.w3.org/TR/2001/REC-SVG-20010904/DTD/svg10.dtd">
<svg version="1.0" xmlns="http://www.w3.org/2000/svg"
 width="638.000000pt" height="671.000000pt" viewBox="0 0 638.000000 671.000000"
 preserveAspectRatio="xMidYMid meet">

<g transform="translate(0.000000,671.000000) scale(0.100000,-0.100000)"
fill="#000000" stroke="none">
<path d="M1370 6663 c-432 -23 -666 -103 -838 -288 -191 -204 -266 -490 -312
-1200 -6 -88 -39 -682 -75 -1320 -36 -638 -70 -1243 -76 -1345 -16 -277 -14
-615 5 -737 44 -293 161 -468 425 -638 130 -84 437 -225 1241 -568 880 -376
958 -408 1076 -442 195 -57 331 -54 555 10 139 40 1892 664 2139 762 569 224
747 412 812 858 22 149 14 658 -31 1970 -55 1632 -64 1806 -107 2045 -75 418
-254 648 -589 753 -262 82 -511 99 -1680 112 -269 4 -839 13 -1265 21 -706 13
-1134 15 -1280 7z m2930 -1068 c316 -96 594 -186 618 -197 51 -26 112 -89 143
-150 16 -30 24 -66 27 -123 l4 -80 -501 -1569 c-276 -862 -511 -1586 -522
-1608 -51 -99 -162 -168 -283 -175 -69 -5 -91 1 -665 177 -327 100 -611 190
-632 200 -115 59 -189 208 -168 338 9 62 995 3145 1020 3192 60 113 191 185
319 176 46 -3 229 -55 640 -181z m-1422 -227 c28 -11 52 -25 52 -31 0 -16
-220 -707 -231 -727 -6 -11 -8 -9 -9 10 0 40 -44 122 -86 162 -89 85 -226 108
-334 57 -112 -53 -174 -147 -174 -264 0 -86 24 -145 84 -205 63 -63 119 -85
215 -85 86 0 148 22 202 73 14 13 26 22 28 20 3 -4 -589 -1856 -596 -1862 -5
-5 -36 87 -640 1873 -43 128 -81 255 -85 281 -14 105 41 230 131 298 50 38 54
40 1120 382 66 22 131 41 145 43 40 8 121 -4 178 -25z m-543 -3557 c59 -35 92
-46 590 -198 209 -63 382 -117 383 -119 2 -1 -121 -44 -275 -95 -250 -83 -286
-92 -353 -92 -92 -1 -172 32 -238 96 -58 56 -75 92 -142 295 -49 148 -54 170
-36 157 12 -8 44 -28 71 -44z"/>
<path d="M4093 5340 c-94 -19 -188 -101 -217 -188 -70 -204 91 -407 309 -390
106 9 204 77 246 171 31 69 32 172 2 238 -55 122 -206 196 -340 169z"/>
<path d="M3555 4480 c-38 -15 -75 -67 -105 -143 -38 -100 -176 -528 -339
-1052 -204 -659 -229 -745 -222 -749 13 -8 800 -246 813 -246 20 0 107 268 90
279 -7 4 -129 43 -272 86 -143 43 -260 83 -260 88 0 28 409 1321 466 1473 19
52 34 110 34 135 0 52 -31 102 -77 124 -34 16 -96 19 -128 5z"/>
</g>
</svg>
